name ./resultDataOpenSim/trcMotMarkerGrf/sub10/grf-01-03.mot
datacolumns 19
datarows 27
range 0.48000000 0.58400000
endheader

                time	     ground_force_vx	     ground_force_vy	     ground_force_vz	     ground_force_px	     ground_force_py	     ground_force_pz	   l_ground_force_vx	   l_ground_force_vy	   l_ground_force_vz	   l_ground_force_px	   l_ground_force_py	   l_ground_force_pz	     ground_torque_x	     ground_torque_y	     ground_torque_z	   l_ground_torque_x	   l_ground_torque_y	   l_ground_torque_z	
          0.48000000	         44.19831249	        509.75404552	        -22.25501253	         -0.77076323	          0.00000000	          0.04540842	          0.00000000	          0.00000000	          0.00000000	          0.00000000	          0.00000000	          0.00000000	          0.00000000	          3.48891867	          0.00000000	          0.00000000	          0.00000000	          0.00000000	
          0.48400000	         45.85610365	        516.62574744	        -22.89094807	         -0.76859950	          0.00000000	          0.04543501	          0.00000000	          0.00000000	          0.00000000	          0.00000000	          0.00000000	          0.00000000	          0.00000000	          3.46345649	          0.00000000	          0.00000000	          0.00000000	          0.00000000	
          0.48800000	         47.10208881	        523.80070839	        -23.48115750	         -0.76628602	          0.00000000	          0.04544162	          0.00000000	          0.00000000	          0.00000000	          0.00000000	          0.00000000	          0.00000000	          0.00000000	          3.44638317	          0.00000000	          0.00000000	          0.00000000	          0.00000000	
          0.49200000	         48.06422393	        531.29433899	        -24.09100183	         -0.76384368	          0.00000000	          0.04543679	          0.00000000	          0.00000000	          0.00000000	          0.00000000	          0.00000000	          0.00000000	          0.00000000	          3.43310425	          0.00000000	          0.00000000	          0.00000000	          0.00000000	
          0.49600000	         48.92211672	        539.12950885	        -24.77303043	         -0.76130274	          0.00000000	          0.04542684	          0.00000000	          0.00000000	          0.00000000	          0.00000000	          0.00000000	          0.00000000	          0.00000000	          3.41910543	          0.00000000	          0.00000000	          0.00000000	          0.00000000	
          0.50000000	         49.85983338	        547.36074306	        -25.55823423	         -0.75870620	          0.00000000	          0.04541530	          0.00000000	          0.00000000	          0.00000000	          0.00000000	          0.00000000	          0.00000000	          0.00000000	          3.40147562	          0.00000000	          0.00000000	          0.00000000	          0.00000000	
          0.50400000	         51.01400301	        556.07040125	        -26.45176196	         -0.75610376	          0.00000000	          0.04540310	          0.00000000	          0.00000000	          0.00000000	          0.00000000	          0.00000000	          0.00000000	          0.00000000	          3.37968989	          0.00000000	          0.00000000	          0.00000000	          0.00000000	
          0.50800000	         52.43534035	        565.33849007	        -27.43404609	         -0.75352659	          0.00000000	          0.04538966	          0.00000000	          0.00000000	          0.00000000	          0.00000000	          0.00000000	          0.00000000	          0.00000000	          3.35563296	          0.00000000	          0.00000000	          0.00000000	          0.00000000	
          0.51200000	         54.08061856	        575.20514886	        -28.46787754	         -0.75097080	          0.00000000	          0.04537262	          0.00000000	          0.00000000	          0.00000000	          0.00000000	          0.00000000	          0.00000000	          0.00000000	          3.33303988	          0.00000000	          0.00000000	          0.00000000	          0.00000000	
          0.51600000	         55.83639654	        585.65455756	        -29.50753370	         -0.74841564	          0.00000000	          0.04534369	          0.00000000	          0.00000000	          0.00000000	          0.00000000	          0.00000000	          0.00000000	          0.00000000	          3.31651962	          0.00000000	          0.00000000	          0.00000000	          0.00000000	
          0.52000000	         57.56512499	        596.63434703	        -30.50723060	         -0.74584621	          0.00000000	          0.04529106	          0.00000000	          0.00000000	          0.00000000	          0.00000000	          0.00000000	          0.00000000	          0.00000000	          3.31027152	          0.00000000	          0.00000000	          0.00000000	          0.00000000	
          0.52400000	         59.15843408	        608.08548556	        -31.42889334	         -0.74326606	          0.00000000	          0.04520607	          0.00000000	          0.00000000	          0.00000000	          0.00000000	          0.00000000	          0.00000000	          0.00000000	          3.31668212	          0.00000000	          0.00000000	          0.00000000	          0.00000000	
          0.52800000	         60.58101387	        619.96155493	        -32.24759876	         -0.74069587	          0.00000000	          0.04508082	          0.00000000	          0.00000000	          0.00000000	          0.00000000	          0.00000000	          0.00000000	          0.00000000	          3.33516876	          0.00000000	          0.00000000	          0.00000000	          0.00000000	
          0.53200000	         61.89336791	        632.24812390	        -32.95286019	         -0.73817552	          0.00000000	          0.04490916	          0.00000000	          0.00000000	          0.00000000	          0.00000000	          0.00000000	          0.00000000	          0.00000000	          3.36171343	          0.00000000	          0.00000000	          0.00000000	          0.00000000	
          0.53600000	         63.24799034	        644.97830854	        -33.54687586	         -0.73575801	          0.00000000	          0.04469114	          0.00000000	          0.00000000	          0.00000000	          0.00000000	          0.00000000	          0.00000000	          0.00000000	          3.38937179	          0.00000000	          0.00000000	          0.00000000	          0.00000000	
          0.54000000	         64.85979220	        658.22485130	        -34.04023325	         -0.73350271	          0.00000000	          0.04443224	          0.00000000	          0.00000000	          0.00000000	          0.00000000	          0.00000000	          0.00000000	          0.00000000	          3.40970504	          0.00000000	          0.00000000	          0.00000000	          0.00000000	
          0.54400000	         66.95838194	        672.06587450	        -34.44360194	         -0.73146798	          0.00000000	          0.04413790	          0.00000000	          0.00000000	          0.00000000	          0.00000000	          0.00000000	          0.00000000	          0.00000000	          3.41474941	          0.00000000	          0.00000000	          0.00000000	          0.00000000	
          0.54800000	         69.73746734	        686.53918014	        -34.75636577	         -0.72969569	          0.00000000	          0.04381122	          0.00000000	          0.00000000	          0.00000000	          0.00000000	          0.00000000	          0.00000000	          0.00000000	          3.39897673	          0.00000000	          0.00000000	          0.00000000	          0.00000000	
          0.55200000	         73.31774056	        701.61452511	        -34.95581433	         -0.72820109	          0.00000000	          0.04345071	          0.00000000	          0.00000000	          0.00000000	          0.00000000	          0.00000000	          0.00000000	          0.00000000	          3.36074265	          0.00000000	          0.00000000	          0.00000000	          0.00000000	
          0.55600000	         77.73061178	        717.19815473	        -34.98952326	         -0.72697344	          0.00000000	          0.04304828	          0.00000000	          0.00000000	          0.00000000	          0.00000000	          0.00000000	          0.00000000	          0.00000000	          3.30288211	          0.00000000	          0.00000000	          0.00000000	          0.00000000	
          0.56000000	         82.92245343	        733.14660101	        -34.77467376	         -0.72598078	          0.00000000	          0.04259439	          0.00000000	          0.00000000	          0.00000000	          0.00000000	          0.00000000	          0.00000000	          0.00000000	          3.23230221	          0.00000000	          0.00000000	          0.00000000	          0.00000000	
          0.56400000	         88.77748251	        749.27013829	        -34.21295118	         -0.72517746	          0.00000000	          0.04208385	          0.00000000	          0.00000000	          0.00000000	          0.00000000	          0.00000000	          0.00000000	          0.00000000	          3.15861694	          0.00000000	          0.00000000	          0.00000000	          0.00000000	
          0.56800000	         95.15642491	        765.33401583	        -33.22447192	         -0.72451124	          0.00000000	          0.04151679	          0.00000000	          0.00000000	          0.00000000	          0.00000000	          0.00000000	          0.00000000	          0.00000000	          3.09208323	          0.00000000	          0.00000000	          0.00000000	          0.00000000	
          0.57200000	        101.94310748	        781.06264781	        -31.78348884	         -0.72393190	          0.00000000	          0.04090015	          0.00000000	          0.00000000	          0.00000000	          0.00000000	          0.00000000	          0.00000000	          0.00000000	          3.04129865	          0.00000000	          0.00000000	          0.00000000	          0.00000000	
          0.57600000	        109.08067186	        796.14254642	        -29.92873711	         -0.72340608	          0.00000000	          0.04024597	          0.00000000	          0.00000000	          0.00000000	          0.00000000	          0.00000000	          0.00000000	          0.00000000	          3.01120549	          0.00000000	          0.00000000	          0.00000000	          0.00000000	
          0.58000000	        116.57590894	        810.23759704	        -27.74551626	         -0.72291680	          0.00000000	          0.03956866	          0.00000000	          0.00000000	          0.00000000	          0.00000000	          0.00000000	          0.00000000	          0.00000000	          3.00186247	          0.00000000	          0.00000000	          0.00000000	          0.00000000	
          0.58400000	        124.46940964	        823.02799504	        -25.34384022	         -0.72245573	          0.00000000	          0.03888263	          0.00000000	          0.00000000	          0.00000000	          0.00000000	          0.00000000	          0.00000000	          0.00000000	          3.00826370	          0.00000000	          0.00000000	          0.00000000	          0.00000000	
